<svg xmlns="http://www.w3.org/2000/svg" width="33" height="33" fill="none" viewBox="0 0 33 33">
  <g class="chemical">
    <g class="fill">
      <path fill="#fff" d="M28.056 29.458l-7.488-11.995V7.397h.673a.575.575 0 00.575-.574V3.05a.575.575 0 00-.575-.574h-9.01a.575.575 0 00-.574.574v3.773c0 .317.257.574.575.574h.674v2.398a.575.575 0 001.15 0V7.397h3.867a.575.575 0 100-1.15h-5.116V3.626h7.86v2.623h-.674a.575.575 0 00-.575.575v10.805c0 .107.03.213.087.304l7.027 11.256h-1.98a.575.575 0 000 1.15h2.654c.095.3.065.625-.095.912-.208.376-.59.6-1.02.6H7.382c-.43 0-.81-.224-1.02-.6a1.15 1.15 0 01-.093-.913h16.024a.575.575 0 100-1.15H6.942l6.857-10.985h4.24a.575.575 0 000-1.15h-3.984v-5.34a.575.575 0 00-1.15 0v5.75L5.418 29.459a2.287 2.287 0 00-.06 2.35A2.287 2.287 0 007.382 33h18.71c.854 0 1.61-.446 2.025-1.193a2.287 2.287 0 00-.06-2.349z"/>
      <path fill="#fff" d="M15.74 19.95h-1.725a.575.575 0 100 1.15h1.724a.575.575 0 000-1.15z"/>
      <path fill="#fff" d="M14.475 22.134H12.75a.575.575 0 100 1.15h1.725a.575.575 0 000-1.15z"/>
      <path fill="#fff" d="M13.21 24.319h-1.724a.575.575 0 000 1.15h1.724a.575.575 0 100-1.15z"/>
      <path fill="#fff" d="M25.702 15.3a2.446 2.446 0 00-2.443 2.444 2.446 2.446 0 002.443 2.443 2.446 2.446 0 002.443-2.443 2.446 2.446 0 00-2.443-2.444zm0 3.737c-.713 0-1.294-.58-1.294-1.293s.58-1.294 1.294-1.294a1.295 1.295 0 010 2.587z"/>
      <path fill="#fff" d="M9.345 7.592c-1.197 0-2.17.973-2.17 2.169 0 1.196.973 2.17 2.17 2.17 1.196 0 2.169-.974 2.169-2.17s-.973-2.17-2.17-2.17zm0 3.189a1.02 1.02 0 010-2.04 1.02 1.02 0 010 2.04z" />
      <path fill="#fff" d="M6.305 18.255c-.947 0-1.717.77-1.717 1.717 0 .947.77 1.717 1.717 1.717.947 0 1.717-.77 1.717-1.717 0-.947-.77-1.717-1.717-1.717zm0 2.284a.568.568 0 11.001-1.136.568.568 0 01-.001 1.136z"/>
      <path fill="#fff" d="M10.707 15.866a.575.575 0 100-1.15.575.575 0 000 1.15z"/>
      <path fill="#fff" d="M19.177 1.15a.575.575 0 100-1.15.575.575 0 000 1.15z"/>
      <path fill="#fff" d="M23.18 11.041a.575.575 0 100-1.15.575.575 0 000 1.15z"/>
    </g>
  </g>
</svg>
