<svg xmlns="http://www.w3.org/2000/svg" width="33" height="33" fill="none" viewBox="0 0 33 33">
  <g class="food">
    <g class="fill">
      <path fill="#fff" d="M21.044 33H8.531a.5.5 0 01-.497-.443L5.445 9.902a.501.501 0 01.497-.557h17.691a.5.5 0 01.497.557l-2.589 22.654a.5.5 0 01-.497.444zM8.977 32h11.621l2.475-21.654H6.503L8.976 32z" />
      <path fill="#fff" d="M23.07 15.275H6.581a.5.5 0 010-1h16.49a.5.5 0 010 1z"/>
      <path fill="#fff" d="M14.121 22.354h-3.09a.5.5 0 01-.5-.5v-3.09a.5.5 0 01.5-.5h3.09a.5.5 0 01.5.5v3.09a.5.5 0 01-.5.5zm-2.59-1h2.09v-2.09h-2.09v2.09z"/>
      <path fill="#fff" d="M17.726 28.635a.493.493 0 01-.26-.073l-2.64-1.606a.5.5 0 01-.166-.687l1.606-2.639a.499.499 0 01.687-.167l2.639 1.606a.5.5 0 01.167.687l-1.606 2.64a.499.499 0 01-.427.24zm-1.951-2.274l1.784 1.086 1.086-1.784-1.784-1.086-1.086 1.784z" class="Vector_4"/>
      <path fill="#fff" d="M23.66 15.9c-.197 0-.393-.01-.586-.027a.501.501 0 01-.45-.545c.025-.274.26-.464.544-.45a5.223 5.223 0 005.71-5.195 5.224 5.224 0 00-5.218-5.219 5.223 5.223 0 00-5.217 5.218.5.5 0 01-1 0 6.224 6.224 0 016.217-6.218 6.225 6.225 0 016.218 6.218A6.226 6.226 0 0123.66 15.9z" class="Vector_5"/>
      <path fill="#fff" d="M11.03 10.183a.5.5 0 01-.492-.415L9.027 1H3.623a.5.5 0 010-1h5.825a.5.5 0 01.493.415l1.583 9.183a.5.5 0 01-.494.585z"/>
      <path fill="#fff" d="M23.633 10.346a.5.5 0 01-.5-.5v-5.88a.5.5 0 011 0v5.88a.5.5 0 01-.5.5z"/>
      <path fill="#fff" d="M27.687 14.21a.502.502 0 01-.354-.146L19.28 6.009a.5.5 0 01.707-.707l8.054 8.055a.5.5 0 01-.354.853z"/>
      <path fill="#fff" d="M23.633 10.346a.5.5 0 01-.354-.853l4.078-4.078a.5.5 0 01.707.707L23.986 10.2a.498.498 0 01-.353.146z"/>
      <path fill="#fff" d="M29.377 10.183h-5.744a.5.5 0 010-1h5.744a.5.5 0 010 1z"/>
    </g>
  </g>
</svg>
