<svg xmlns="http://www.w3.org/2000/svg" width="33" height="33" fill="none" viewBox="0 0 33 33">
  <g class="gas">
    <g class="fill">
      <path fill="#fff" d="M21.21 6.25V.528A.527.527 0 0020.684 0h-8.368a.527.527 0 00-.527.527V6.25c-3.449.27-6.173 3.162-6.173 6.679v13.133a4.84 4.84 0 004.307 4.804v1.606c0 .291.236.527.527.527h12.1c.29 0 .527-.236.527-.527v-1.606a4.84 4.84 0 004.306-4.804V12.93c0-3.517-2.724-6.41-6.173-6.68zm-1.053-5.197V6.23h-3.13V5.032a1.49 1.49 0 00.961-1.39A1.49 1.49 0 0016.5 2.153a1.49 1.49 0 00-1.489 1.489c0 .635.401 1.177.962 1.39V6.23h-3.13V1.053h7.314zM16.5 4.077a.436.436 0 110-.871.436.436 0 010 .87zm-4.184 3.206h8.368a5.653 5.653 0 015.62 5.12H10.357a.527.527 0 000 1.053H26.33v12.08H6.67v-12.08h1.58a.527.527 0 000-1.053H6.694a5.653 5.653 0 015.62-5.12zm-1.34 24.664v-1.05h11.047v1.05H10.976zm11.574-2.104h-12.1a3.785 3.785 0 01-3.743-3.253h19.586a3.785 3.785 0 01-3.743 3.253z"/>
      <path fill="#fff" d="M16.5 24.484c1.13 0 2.119-.394 2.857-1.138.764-.77 1.197-1.865 1.189-3.005-.017-2.114-1.515-4.002-1.579-4.082a.528.528 0 00-.84.026l-.106.15c-.258-.562-.64-1.247-1.143-1.766a.527.527 0 00-.756 0c-.503.519-.885 1.204-1.143 1.766l-.106-.15a.527.527 0 00-.84-.026c-.064.08-1.562 1.968-1.579 4.082-.009 1.14.425 2.235 1.189 3.005.738.744 1.726 1.138 2.857 1.138zm-2.05-6.973l.126.178c.153.216.274.387.568.368a.526.526 0 00.46-.341c0-.004.005-.016.011-.035.095-.282.397-1.119.885-1.815.487.696.79 1.533.884 1.815l.012.035a.527.527 0 00.603.331c.202-.043.272-.142.425-.358l.125-.178c.394.643.935 1.726.943 2.838.007.861-.315 1.683-.882 2.256-.537.54-1.266.826-2.11.826-.844 0-1.574-.286-2.11-.826-.568-.573-.89-1.395-.883-2.256.009-1.112.55-2.195.943-2.838z"/>
    </g>
  </g>
</svg>
