<svg xmlns="http://www.w3.org/2000/svg" width="48" height="21" fill="none" viewBox="0 0 48 21">
  <g class="tank">
    <g class="stroke">
      <path stroke="#A8A8A8" stroke-linecap="round" stroke-miterlimit="10" stroke-width="2" d="M1.416 1.111h45.396V19.27H1.416V1.11z"/>
      <path stroke="#A8A8A8" stroke-linecap="round" stroke-miterlimit="10" stroke-width="2" d="M35.778 19.27H12.032c-4.89 0-8.8-4.051-8.8-8.8v.419c0-4.89 4.05-8.8 8.8-8.8h23.746c4.889 0 8.8 4.05 8.8 8.8 0 4.889-4.051 8.38-8.8 8.38z"/>
    </g>
    <g class="fill">
      <path fill="#A8A8A8" d="M23.714 15.143a1.714 1.714 0 100-3.429 1.714 1.714 0 000 3.429zM23.714 10a1.714 1.714 0 100-3.428 1.714 1.714 0 000 3.428z"/>
    </g>
  </g>
</svg>
